<svg width="314" height="314" viewBox="0 0 314 314" fill="none" xmlns="http://www.w3.org/2000/svg">
<!--    scills-->
    <g id="ts">
        <path d="M283.336 0H30.6641C13.7288 0 0 13.7288 0 30.6641V283.336C0 300.271 13.7288 314 30.6641 314H283.336C300.271 314 314 300.271 314 283.336V30.6641C314 13.7288 300.271 0 283.336 0Z"
              fill="#3178C6"/>
        <path fill-rule="evenodd" clip-rule="evenodd"
              d="M194.373 249.866V280.567C199.364 283.126 205.266 285.044 212.081 286.323C218.896 287.603 226.078 288.242 233.629 288.242C240.988 288.242 247.978 287.539 254.601 286.131C261.223 284.724 267.031 282.406 272.022 279.175C277.012 275.946 280.964 271.724 283.875 266.511C286.786 261.298 288.242 254.855 288.242 247.179C288.242 241.614 287.411 236.738 285.747 232.548C284.083 228.359 281.684 224.633 278.548 221.371C275.413 218.109 271.654 215.183 267.27 212.592C262.887 210.002 257.944 207.555 252.441 205.253C248.41 203.59 244.795 201.975 241.595 200.408C238.396 198.84 235.677 197.242 233.437 195.611C231.197 193.98 229.47 192.253 228.254 190.43C227.039 188.607 226.43 186.544 226.43 184.241C226.43 182.131 226.974 180.228 228.062 178.533C229.15 176.838 230.686 175.383 232.669 174.168C234.653 172.953 237.084 172.009 239.963 171.337C242.843 170.666 246.042 170.33 249.562 170.33C252.121 170.33 254.825 170.522 257.672 170.906C260.519 171.289 263.383 171.881 266.263 172.68C269.142 173.48 271.941 174.488 274.661 175.703C277.38 176.918 279.892 178.325 282.195 179.924V151.238C277.524 149.447 272.421 148.12 266.887 147.256C261.352 146.393 255.001 145.961 247.834 145.961C240.539 145.961 233.629 146.745 227.102 148.312C220.576 149.879 214.833 152.325 209.873 155.651C204.914 158.977 200.996 163.214 198.116 168.363C195.237 173.512 193.797 179.668 193.797 186.832C193.797 195.978 196.436 203.782 201.716 210.242C206.994 216.702 215.008 222.17 225.759 226.648C229.982 228.375 233.917 230.069 237.564 231.733C241.211 233.396 244.363 235.123 247.018 236.914C249.674 238.704 251.769 240.655 253.305 242.766C254.841 244.876 255.609 247.275 255.609 249.962C255.609 251.945 255.129 253.783 254.169 255.478C253.209 257.173 251.753 258.644 249.802 259.891C247.85 261.139 245.419 262.114 242.507 262.817C239.595 263.521 236.189 263.873 232.285 263.873C225.63 263.873 219.04 262.706 212.513 260.371C205.986 258.037 199.939 254.535 194.373 249.866ZM142.76 174.222H182.145V149.027H72.3672V174.222H111.56V286.402H142.76V174.222Z"
              fill="white"/>
    </g>
    <g id="figma">
        <path fill-rule="evenodd" clip-rule="evenodd" d="M104.667 157C104.667 128.098 128.098 104.667 157 104.667C185.902 104.667 209.333 128.098 209.333 157C209.333 185.902 185.902 209.333 157 209.333C128.098 209.333 104.667 185.902 104.667 157Z" fill="#1ABCFE"/>
        <path fill-rule="evenodd" clip-rule="evenodd" d="M0 261.667C0 232.764 23.4304 209.333 52.3333 209.333H104.667V261.667C104.667 290.569 81.2357 314 52.3333 314C23.4304 314 0 290.569 0 261.667Z" fill="#0ACF83"/>
        <path fill-rule="evenodd" clip-rule="evenodd" d="M104.667 0V104.667H157C185.902 104.667 209.333 81.2357 209.333 52.3333C209.333 23.4304 185.902 0 157 0H104.667Z" fill="#FF7262"/>
        <path fill-rule="evenodd" clip-rule="evenodd" d="M0 52.3333C0 81.2357 23.4304 104.667 52.3333 104.667H104.667V0H52.3333C23.4304 0 0 23.4304 0 52.3333Z" fill="#F24E1E"/>
        <path fill-rule="evenodd" clip-rule="evenodd" d="M0 157C0 185.902 23.4304 209.333 52.3333 209.333H104.667V104.667H52.3333C23.4304 104.667 0 128.098 0 157Z" fill="#A259FF"/>
    </g>
    <g id="git">
        <g clip-path="url(#clip0_13_2984)">
            <path d="M103.62 47.8219L57.7758 1.98038C55.1372 -0.6598 50.8552 -0.6598 48.2134 1.98038L38.6937 11.5001L50.7699 23.5763C53.5762 22.6281 56.7943 23.2642 59.0313 25.5012C61.2789 27.7525 61.9106 30.9981 60.9393 33.8134L72.5775 45.452C75.3932 44.482 78.6421 45.1095 80.891 47.3621C84.034 50.5039 84.034 55.596 80.891 58.7399C77.7471 61.8841 72.655 61.8841 69.5095 58.7399C67.1454 56.3733 66.5613 52.9013 67.7582 49.9888L56.9046 39.1352L56.9034 67.6973C57.6902 68.0863 58.4088 68.6002 59.0313 69.2189C62.1743 72.3607 62.1743 77.4532 59.0313 80.5995C55.8874 83.7422 50.7929 83.7422 47.6535 80.5995C44.5105 77.4532 44.5105 72.3611 47.6535 69.2193C48.4067 68.4658 49.3019 67.869 50.2872 67.4635V38.6352C49.3004 38.2324 48.4048 37.6353 47.6535 36.8793C45.2722 34.5013 44.6996 31.0071 45.9198 28.0831L34.0154 16.1775L2.58106 47.6099C-0.0603455 50.2525 -0.0603455 54.5349 2.58106 57.1755L48.4259 103.018C51.0652 105.658 55.3464 105.658 57.9891 103.018L103.619 57.3884C106.26 54.747 106.26 50.4621 103.619 47.8219"
                  fill="#DE4C36"/>
        </g>
        <defs>
            <clipPath id="clip0_13_2984">
                <rect width="105" height="105" fill="white" transform="translate(0.600006)"/>
            </clipPath>
        </defs>
    </g>
    <g id="react">
        <path d="M93.1056 32.7027C91.9031 32.2887 90.6904 31.9051 89.4687 31.5523C89.6739 30.7106 89.8628 29.8792 90.0305 29.0623C92.7838 15.6483 90.9839 4.84178 84.8361 1.28375C78.9416 -2.12722 69.3016 1.42949 59.5659 9.93342C58.6064 10.773 57.6682 11.6368 56.7521 12.524C56.1389 11.934 55.5149 11.3556 54.8803 10.7888C44.6767 1.69616 34.4493 -2.13608 28.3081 1.43215C22.4189 4.85374 20.675 15.0127 23.1538 27.7254C23.4004 28.9844 23.6788 30.237 23.9888 31.4819C22.5411 31.8947 21.1442 32.3342 19.8073 32.8019C7.84441 36.9881 0.204742 43.5483 0.204742 50.3529C0.204742 57.3808 8.40627 64.43 20.8661 68.7043C21.8763 69.0495 22.8948 69.3692 23.9209 69.6634C23.5876 71.0042 23.2918 72.354 23.0337 73.7114C20.6706 86.2035 22.516 96.1223 28.3893 99.5222C34.4555 103.033 44.637 99.4247 54.5506 90.7268C55.3545 90.0196 56.1407 89.2925 56.9084 88.546C57.9004 89.5066 58.9189 90.4393 59.9627 91.343C69.566 99.6365 79.0501 102.985 84.9177 99.5762C90.9782 96.055 92.948 85.3995 90.3907 72.4356C90.1892 71.42 89.9633 70.4094 89.7132 69.4047C90.4282 69.1921 91.13 68.9732 91.8141 68.7455C104.767 64.4384 113.195 57.4747 113.195 50.3529C113.195 43.5234 105.309 36.919 93.1056 32.7027ZM90.2962 64.1474C89.6783 64.3525 89.0445 64.5505 88.3983 64.7432C86.9683 60.1995 85.0386 55.3684 82.6769 50.3764C84.9305 45.5036 86.786 40.734 88.1759 36.22C89.3318 36.5558 90.4534 36.9097 91.5347 37.2832C101.991 40.8961 108.369 46.2372 108.369 50.3529C108.369 54.7367 101.481 60.4277 90.2962 64.1474ZM85.6557 73.3765C86.7865 79.1087 86.9476 84.2916 86.1986 88.3435C85.5259 91.9844 84.1727 94.4115 82.499 95.3839C78.9385 97.4526 71.3235 94.7637 63.111 87.6706C62.1401 86.8305 61.1927 85.9634 60.2699 85.0703C63.4539 81.5756 66.6357 77.5131 69.7412 73.0008C75.2036 72.5144 80.3641 71.7188 85.0439 70.6331C85.2694 71.5426 85.4734 72.4573 85.6557 73.3765ZM38.7257 95.0264C35.2468 96.2592 32.4759 96.2946 30.8009 95.3254C27.2369 93.2624 25.7552 85.298 27.7762 74.6151C28.0165 73.3527 28.2915 72.0972 28.6011 70.8502C33.2293 71.8779 38.3523 72.6168 43.8275 73.0624C46.9542 77.4776 50.2278 81.5358 53.5271 85.0894C52.8259 85.7703 52.1082 86.4338 51.3745 87.0793C46.9904 90.9252 42.5974 93.654 38.7257 95.0264ZM22.4277 64.1204C16.9181 62.2302 12.368 59.7738 9.24929 57.0933C6.44659 54.6848 5.032 52.2932 5.032 50.3529C5.032 46.2234 11.1657 40.9564 21.3962 37.3766C22.6378 36.9425 23.9372 36.5327 25.2856 36.1482C26.6997 40.7641 28.5544 45.5904 30.7925 50.4707C28.5252 55.4233 26.6441 60.3267 25.2163 64.997C24.2797 64.7278 23.3499 64.4355 22.4277 64.1204ZM27.891 26.7947C25.7676 15.9031 27.1777 7.68706 30.7268 5.62497C34.5067 3.42867 42.8653 6.56011 51.6755 14.4115C52.25 14.9247 52.8152 15.4482 53.3708 15.9819C50.0879 19.52 46.8443 23.548 43.7454 27.9371C38.4313 28.4315 33.3445 29.2253 28.6678 30.2889C28.3797 29.131 28.1206 27.9661 27.891 26.7951V26.7947ZM76.6301 38.8739C75.5255 36.9589 74.3798 35.0679 73.194 33.2024C76.7991 33.66 80.2533 34.2673 83.4969 35.0098C82.5233 38.1425 81.3095 41.4175 79.8808 44.7753C78.8365 42.7867 77.7527 40.8191 76.6301 38.8739ZM56.7544 19.4443C58.9806 21.8652 61.2104 24.5678 63.4036 27.5003C58.9546 27.2894 54.4982 27.2886 50.0491 27.4977C52.2444 24.5922 54.4932 21.8931 56.7544 19.4443ZM36.751 38.9071C35.6425 40.8367 34.5789 42.792 33.5613 44.7713C32.1559 41.4255 30.9532 38.1355 29.9712 34.9584C33.1949 34.2346 36.6327 33.6427 40.2149 33.1935C39.0159 35.0704 37.8609 36.9754 36.751 38.9067V38.9071ZM40.3177 67.8569C36.6169 67.4423 33.1274 66.881 29.9045 66.1767C30.902 62.9429 32.1312 59.5829 33.567 56.1653C34.5887 58.1461 35.6567 60.1026 36.77 62.033C37.9149 64.0176 39.1004 65.9614 40.3177 67.8569ZM56.8876 81.6027C54.5996 79.1255 52.3177 76.3848 50.0892 73.4372C52.2528 73.5222 54.4583 73.5656 56.7001 73.5656C59.0031 73.5656 61.2797 73.5138 63.5205 73.4137C61.3203 76.4145 59.0989 79.1592 56.8876 81.6027ZM79.9263 55.9907C81.4366 59.446 82.7095 62.7883 83.7203 65.9667C80.4444 66.7171 76.9073 67.3214 73.1804 67.7701C74.3746 65.8699 75.5311 63.9461 76.6491 61.9998C77.7858 60.0214 78.8784 58.0179 79.9263 55.9907ZM72.468 59.5794C70.7564 62.5634 68.9487 65.4909 67.0475 68.357C63.6038 68.6018 60.1524 68.7234 56.7001 68.7216C53.1837 68.7216 49.7635 68.6118 46.47 68.3974C44.5192 65.5378 42.677 62.6053 40.9471 59.6059H40.9476C39.2259 56.6225 37.6177 53.5745 36.1265 50.4685C37.6139 47.3618 39.2172 44.3124 40.933 41.3267L40.9326 41.3271C42.6477 38.3407 44.4753 35.4206 46.4113 32.5734C49.7714 32.3182 53.2172 32.1853 56.6996 32.1853H56.7001C60.1984 32.1853 63.6485 32.3195 67.0078 32.5765C68.9243 35.4195 70.7402 38.3295 72.4521 41.301C74.1736 44.2801 75.7981 47.3147 77.3231 50.3999C75.8138 53.5166 74.1944 56.5783 72.468 59.5794ZM82.4253 5.48056C86.2087 7.67067 87.6802 16.5024 85.303 28.0842C85.1512 28.8231 84.9808 29.5757 84.7954 30.339C80.1072 29.2528 75.0169 28.4452 69.6874 27.9433C66.5828 23.506 63.3656 19.4717 60.1361 15.9792C60.9825 15.1604 61.849 14.3628 62.7349 13.5871C71.0768 6.30141 78.8732 3.42468 82.4253 5.48056ZM56.7001 40.2263C62.2724 40.2263 66.7898 44.7603 66.7898 50.3529C66.7898 55.9456 62.2724 60.4795 56.7001 60.4795C51.1278 60.4795 46.6104 55.9456 46.6104 50.3529C46.6104 44.7603 51.1278 40.2263 56.7001 40.2263Z" fill="#00D8FF"/></g>
    <g id="css">
        <path d="M22.3653 101.154L13.9428 7.4375H106.523L98.089 101.139L60.1765 111.562L22.3653 101.154Z" fill="#1572B6"/>
        <path d="M60.2328 103.597L90.8703 95.174L98.0778 15.1019H60.2328V103.597Z" fill="#33A9DC"/>
        <path d="M60.2328 49.054H75.5703L76.6278 37.2842H60.2328V25.7896H89.2953L89.0178 28.8724L86.1715 60.5487H60.2328V49.054Z" fill="white"/>
        <path d="M60.304 78.9045L60.2515 78.9193L47.344 75.4609L46.519 66.2942H34.8828L36.5065 84.3413L60.2478 90.8788L60.304 90.864V78.9045Z" fill="#EBEBEB"/>
        <path d="M74.584 60.0615L73.189 75.4534L60.2628 78.9119V90.8714L84.0228 84.3412L84.199 82.4001L86.2128 60.0615H74.584Z" fill="white"/>
        <path d="M60.274 25.7896V37.2842H32.2765L32.044 34.6997L31.5153 28.8724L31.2378 25.7896H60.274ZM60.2328 49.054V60.5487H47.4865L47.254 57.9642L46.729 52.1369L46.4515 49.054H60.2328Z" fill="#EBEBEB"/>
    </g>
    <g id="HTML">
        <path d="M22.9817 102.004L14.5554 7.5H107.143L98.7054 101.989L60.7929 112.5L22.9817 102.004Z" fill="#E44F26"/>
        <path d="M60.8492 104.468L91.4867 95.9738L98.6942 15.2288H60.8492V104.468Z" fill="#F1662A"/>
        <path d="M60.8492 50.2762H45.5117L44.4542 38.4075H60.8492V26.8162H31.7867L32.0642 29.9287L34.9104 61.8675H60.8492V50.2762ZM60.8492 80.3775L60.7967 80.3925L47.8892 76.9087L47.0642 67.665H35.4279L37.0517 85.86L60.7967 92.4525L60.8492 92.4375V80.3775Z" fill="#EBEBEB"/>
        <path d="M60.8079 50.2762V61.8675H75.0804L73.7379 76.9012L60.8079 80.3887V92.4487L84.5717 85.86L84.7442 83.9025L87.4667 53.3887L87.7517 50.2762H60.8079ZM60.8079 26.8162V38.4075H88.8054L89.0379 35.805L89.5667 29.9287L89.8442 26.8162H60.8079Z" fill="white"/></g>
    <g id="js">
        <path d="M8.11639 7.5H113.116V112.5H8.11639V7.5Z" fill="#F5DE19"/>
        <path d="M78.6501 89.5312C79.5448 91.3485 80.9347 92.8759 82.6598 93.9375C84.3848 94.9991 86.3747 95.5515 88.4001 95.5313C92.4876 95.5313 95.1014 93.4875 95.1014 90.6562C95.1014 87.2812 92.4164 86.0738 87.9164 84.105L85.4489 83.0475C78.3239 80.0138 73.5989 76.215 73.5989 68.1825C73.5989 60.7838 79.2239 55.1475 88.0476 55.1475C90.904 54.9412 93.7579 55.5805 96.2534 56.9856C98.7488 58.3907 100.775 60.4994 102.08 63.0488L94.3664 67.98C93.864 66.716 92.9892 65.6345 91.858 64.879C90.7268 64.1236 89.3927 63.7298 88.0326 63.75C87.4392 63.6906 86.84 63.7555 86.273 63.9404C85.7061 64.1254 85.1839 64.4265 84.7397 64.8244C84.2956 65.2224 83.9392 65.7085 83.6932 66.2518C83.4473 66.7951 83.3173 67.3837 83.3114 67.98C83.3114 70.9388 85.1451 72.1388 89.3789 73.98L91.8464 75.0375C100.231 78.6338 104.971 82.2975 104.971 90.5363C104.971 99.42 97.9926 104.287 88.6214 104.287C84.97 104.52 81.3293 103.691 78.1387 101.901C74.948 100.11 72.3438 97.4342 70.6401 94.1963L78.6501 89.5312ZM43.7939 90.3863C45.3426 93.135 46.7526 95.46 50.1426 95.46C53.3826 95.46 55.4301 94.1925 55.4301 89.2612V55.71H65.2964V89.3925C65.2964 99.6075 59.2964 104.257 50.5626 104.257C47.4755 104.426 44.4095 103.657 41.7677 102.051C39.126 100.444 37.0321 98.0761 35.7614 95.2575L43.7939 90.3863Z" fill="black"/>
    </g>

<!--    social-->
</svg>
