<svg width="314" height="314" viewBox="0 0 314 314" fill="none" xmlns="http://www.w3.org/2000/svg">
    <g id="logo">
        <path d="M0.0546875 15.7949V21.1035L15.1016 28.4512V22.9492L5.13477 18.4492L15.1016 13.9668V8.46484L0.0546875 15.7949ZM34.3145 0.976562L18.2656 36.0449H23.8027L39.8516 0.976562H34.3145Z"
              fill="#00C4F0"/>
    </g>

    <!--skills-->
    <g id="ts">
        <path d="M23.827,8.243A4.424,4.424,0,0,1,26.05,9.524a5.853,5.853,0,0,1,.852,1.143c.011.045-1.534,1.083-2.471,1.662-.034.023-.169-.124-.322-.35a2.014,2.014,0,0,0-1.67-1c-1.077-.074-1.771.49-1.766,1.433a1.3,1.3,0,0,0,.153.666c.237.49.677.784,2.059,1.383,2.544,1.095,3.636,1.817,4.31,2.843a5.158,5.158,0,0,1,.416,4.333,4.764,4.764,0,0,1-3.932,2.815,10.9,10.9,0,0,1-2.708-.028,6.531,6.531,0,0,1-3.616-1.884,6.278,6.278,0,0,1-.926-1.371,2.655,2.655,0,0,1,.327-.208c.158-.09.756-.434,1.32-.761L19.1,19.6l.214.312a4.771,4.771,0,0,0,1.35,1.292,3.3,3.3,0,0,0,3.458-.175,1.545,1.545,0,0,0,.2-1.974c-.276-.395-.84-.727-2.443-1.422a8.8,8.8,0,0,1-3.349-2.055,4.687,4.687,0,0,1-.976-1.777,7.116,7.116,0,0,1-.062-2.268,4.332,4.332,0,0,1,3.644-3.374A9,9,0,0,1,23.827,8.243ZM15.484,9.726l.011,1.454h-4.63V24.328H7.6V11.183H2.97V9.755A13.986,13.986,0,0,1,3.01,8.289c.017-.023,2.832-.034,6.245-.028l6.211.017Z" style="fill:#007acc"/>
    </g>
    <g id="figma">
        <path fill-rule="evenodd" clip-rule="evenodd"
              d="M104.667 157C104.667 128.098 128.098 104.667 157 104.667C185.902 104.667 209.333 128.098 209.333 157C209.333 185.902 185.902 209.333 157 209.333C128.098 209.333 104.667 185.902 104.667 157Z"
              fill="#1ABCFE"/>
        <path fill-rule="evenodd" clip-rule="evenodd"
              d="M0 261.667C0 232.764 23.4304 209.333 52.3333 209.333H104.667V261.667C104.667 290.569 81.2357 314 52.3333 314C23.4304 314 0 290.569 0 261.667Z"
              fill="#0ACF83"/>
        <path fill-rule="evenodd" clip-rule="evenodd"
              d="M104.667 0V104.667H157C185.902 104.667 209.333 81.2357 209.333 52.3333C209.333 23.4304 185.902 0 157 0H104.667Z"
              fill="#FF7262"/>
        <path fill-rule="evenodd" clip-rule="evenodd"
              d="M0 52.3333C0 81.2357 23.4304 104.667 52.3333 104.667H104.667V0H52.3333C23.4304 0 0 23.4304 0 52.3333Z"
              fill="#F24E1E"/>
        <path fill-rule="evenodd" clip-rule="evenodd"
              d="M0 157C0 185.902 23.4304 209.333 52.3333 209.333H104.667V104.667H52.3333C23.4304 104.667 0 128.098 0 157Z"
              fill="#A259FF"/>
    </g>
    <g id="git">
        <path fill-rule="evenodd" clip-rule="evenodd"
              d="M44 0C19.69 0 0 19.69 0 44C0 63.47 12.595 79.915 30.085 85.745C32.285 86.13 33.11 84.81 33.11 83.655C33.11 82.61 33.055 79.145 33.055 75.46C22 77.495 19.14 72.765 18.26 70.29C17.765 69.025 15.62 65.12 13.75 64.075C12.21 63.25 10.01 61.215 13.695 61.16C17.16 61.105 19.635 64.35 20.46 65.67C24.42 72.325 30.745 70.455 33.275 69.3C33.66 66.44 34.815 64.515 36.08 63.415C26.29 62.315 16.06 58.52 16.06 41.69C16.06 36.905 17.765 32.945 20.57 29.865C20.13 28.765 18.59 24.255 21.01 18.205C21.01 18.205 24.695 17.05 33.11 22.715C36.63 21.725 40.37 21.23 44.11 21.23C47.85 21.23 51.59 21.725 55.11 22.715C63.525 16.995 67.21 18.205 67.21 18.205C69.63 24.255 68.09 28.765 67.65 29.865C70.455 32.945 72.16 36.85 72.16 41.69C72.16 58.575 61.875 62.315 52.085 63.415C53.68 64.79 55.055 67.43 55.055 71.555C55.055 77.44 55 82.17 55 83.655C55 84.81 55.825 86.185 58.025 85.745C66.7597 82.796 74.3497 77.1822 79.7268 69.6937C85.1039 62.2052 87.9974 53.219 88 44C88 19.69 68.31 0 44 0Z"
              fill="black"/>
    </g>
    <g id="react">
        <path d="M93.1056 32.7027C91.9031 32.2887 90.6904 31.9051 89.4687 31.5523C89.6739 30.7106 89.8628 29.8792 90.0305 29.0623C92.7838 15.6483 90.9839 4.84178 84.8361 1.28375C78.9416 -2.12722 69.3016 1.42949 59.5659 9.93342C58.6064 10.773 57.6682 11.6368 56.7521 12.524C56.1389 11.934 55.5149 11.3556 54.8803 10.7888C44.6767 1.69616 34.4493 -2.13608 28.3081 1.43215C22.4189 4.85374 20.675 15.0127 23.1538 27.7254C23.4004 28.9844 23.6788 30.237 23.9888 31.4819C22.5411 31.8947 21.1442 32.3342 19.8073 32.8019C7.84441 36.9881 0.204742 43.5483 0.204742 50.3529C0.204742 57.3808 8.40627 64.43 20.8661 68.7043C21.8763 69.0495 22.8948 69.3692 23.9209 69.6634C23.5876 71.0042 23.2918 72.354 23.0337 73.7114C20.6706 86.2035 22.516 96.1223 28.3893 99.5222C34.4555 103.033 44.637 99.4247 54.5506 90.7268C55.3545 90.0196 56.1407 89.2925 56.9084 88.546C57.9004 89.5066 58.9189 90.4393 59.9627 91.343C69.566 99.6365 79.0501 102.985 84.9177 99.5762C90.9782 96.055 92.948 85.3995 90.3907 72.4356C90.1892 71.42 89.9633 70.4094 89.7132 69.4047C90.4282 69.1921 91.13 68.9732 91.8141 68.7455C104.767 64.4384 113.195 57.4747 113.195 50.3529C113.195 43.5234 105.309 36.919 93.1056 32.7027ZM90.2962 64.1474C89.6783 64.3525 89.0445 64.5505 88.3983 64.7432C86.9683 60.1995 85.0386 55.3684 82.6769 50.3764C84.9305 45.5036 86.786 40.734 88.1759 36.22C89.3318 36.5558 90.4534 36.9097 91.5347 37.2832C101.991 40.8961 108.369 46.2372 108.369 50.3529C108.369 54.7367 101.481 60.4277 90.2962 64.1474ZM85.6557 73.3765C86.7865 79.1087 86.9476 84.2916 86.1986 88.3435C85.5259 91.9844 84.1727 94.4115 82.499 95.3839C78.9385 97.4526 71.3235 94.7637 63.111 87.6706C62.1401 86.8305 61.1927 85.9634 60.2699 85.0703C63.4539 81.5756 66.6357 77.5131 69.7412 73.0008C75.2036 72.5144 80.3641 71.7188 85.0439 70.6331C85.2694 71.5426 85.4734 72.4573 85.6557 73.3765ZM38.7257 95.0264C35.2468 96.2592 32.4759 96.2946 30.8009 95.3254C27.2369 93.2624 25.7552 85.298 27.7762 74.6151C28.0165 73.3527 28.2915 72.0972 28.6011 70.8502C33.2293 71.8779 38.3523 72.6168 43.8275 73.0624C46.9542 77.4776 50.2278 81.5358 53.5271 85.0894C52.8259 85.7703 52.1082 86.4338 51.3745 87.0793C46.9904 90.9252 42.5974 93.654 38.7257 95.0264ZM22.4277 64.1204C16.9181 62.2302 12.368 59.7738 9.24929 57.0933C6.44659 54.6848 5.032 52.2932 5.032 50.3529C5.032 46.2234 11.1657 40.9564 21.3962 37.3766C22.6378 36.9425 23.9372 36.5327 25.2856 36.1482C26.6997 40.7641 28.5544 45.5904 30.7925 50.4707C28.5252 55.4233 26.6441 60.3267 25.2163 64.997C24.2797 64.7278 23.3499 64.4355 22.4277 64.1204ZM27.891 26.7947C25.7676 15.9031 27.1777 7.68706 30.7268 5.62497C34.5067 3.42867 42.8653 6.56011 51.6755 14.4115C52.25 14.9247 52.8152 15.4482 53.3708 15.9819C50.0879 19.52 46.8443 23.548 43.7454 27.9371C38.4313 28.4315 33.3445 29.2253 28.6678 30.2889C28.3797 29.131 28.1206 27.9661 27.891 26.7951V26.7947ZM76.6301 38.8739C75.5255 36.9589 74.3798 35.0679 73.194 33.2024C76.7991 33.66 80.2533 34.2673 83.4969 35.0098C82.5233 38.1425 81.3095 41.4175 79.8808 44.7753C78.8365 42.7867 77.7527 40.8191 76.6301 38.8739ZM56.7544 19.4443C58.9806 21.8652 61.2104 24.5678 63.4036 27.5003C58.9546 27.2894 54.4982 27.2886 50.0491 27.4977C52.2444 24.5922 54.4932 21.8931 56.7544 19.4443ZM36.751 38.9071C35.6425 40.8367 34.5789 42.792 33.5613 44.7713C32.1559 41.4255 30.9532 38.1355 29.9712 34.9584C33.1949 34.2346 36.6327 33.6427 40.2149 33.1935C39.0159 35.0704 37.8609 36.9754 36.751 38.9067V38.9071ZM40.3177 67.8569C36.6169 67.4423 33.1274 66.881 29.9045 66.1767C30.902 62.9429 32.1312 59.5829 33.567 56.1653C34.5887 58.1461 35.6567 60.1026 36.77 62.033C37.9149 64.0176 39.1004 65.9614 40.3177 67.8569ZM56.8876 81.6027C54.5996 79.1255 52.3177 76.3848 50.0892 73.4372C52.2528 73.5222 54.4583 73.5656 56.7001 73.5656C59.0031 73.5656 61.2797 73.5138 63.5205 73.4137C61.3203 76.4145 59.0989 79.1592 56.8876 81.6027ZM79.9263 55.9907C81.4366 59.446 82.7095 62.7883 83.7203 65.9667C80.4444 66.7171 76.9073 67.3214 73.1804 67.7701C74.3746 65.8699 75.5311 63.9461 76.6491 61.9998C77.7858 60.0214 78.8784 58.0179 79.9263 55.9907ZM72.468 59.5794C70.7564 62.5634 68.9487 65.4909 67.0475 68.357C63.6038 68.6018 60.1524 68.7234 56.7001 68.7216C53.1837 68.7216 49.7635 68.6118 46.47 68.3974C44.5192 65.5378 42.677 62.6053 40.9471 59.6059H40.9476C39.2259 56.6225 37.6177 53.5745 36.1265 50.4685C37.6139 47.3618 39.2172 44.3124 40.933 41.3267L40.9326 41.3271C42.6477 38.3407 44.4753 35.4206 46.4113 32.5734C49.7714 32.3182 53.2172 32.1853 56.6996 32.1853H56.7001C60.1984 32.1853 63.6485 32.3195 67.0078 32.5765C68.9243 35.4195 70.7402 38.3295 72.4521 41.301C74.1736 44.2801 75.7981 47.3147 77.3231 50.3999C75.8138 53.5166 74.1944 56.5783 72.468 59.5794ZM82.4253 5.48056C86.2087 7.67067 87.6802 16.5024 85.303 28.0842C85.1512 28.8231 84.9808 29.5757 84.7954 30.339C80.1072 29.2528 75.0169 28.4452 69.6874 27.9433C66.5828 23.506 63.3656 19.4717 60.1361 15.9792C60.9825 15.1604 61.849 14.3628 62.7349 13.5871C71.0768 6.30141 78.8732 3.42468 82.4253 5.48056ZM56.7001 40.2263C62.2724 40.2263 66.7898 44.7603 66.7898 50.3529C66.7898 55.9456 62.2724 60.4795 56.7001 60.4795C51.1278 60.4795 46.6104 55.9456 46.6104 50.3529C46.6104 44.7603 51.1278 40.2263 56.7001 40.2263Z"
              fill="#00D8FF"/>
    </g>
    <g id="css">
        <path d="M22.3653 101.154L13.9428 7.4375H106.523L98.089 101.139L60.1765 111.562L22.3653 101.154Z"
              fill="#1572B6"/>
        <path d="M60.2328 103.597L90.8703 95.174L98.0778 15.1019H60.2328V103.597Z" fill="#33A9DC"/>
        <path d="M60.2328 49.054H75.5703L76.6278 37.2842H60.2328V25.7896H89.2953L89.0178 28.8724L86.1715 60.5487H60.2328V49.054Z"
              fill="white"/>
        <path d="M60.304 78.9045L60.2515 78.9193L47.344 75.4609L46.519 66.2942H34.8828L36.5065 84.3413L60.2478 90.8788L60.304 90.864V78.9045Z"
              fill="#EBEBEB"/>
        <path d="M74.584 60.0615L73.189 75.4534L60.2628 78.9119V90.8714L84.0228 84.3412L84.199 82.4001L86.2128 60.0615H74.584Z"
              fill="white"/>
        <path d="M60.274 25.7896V37.2842H32.2765L32.044 34.6997L31.5153 28.8724L31.2378 25.7896H60.274ZM60.2328 49.054V60.5487H47.4865L47.254 57.9642L46.729 52.1369L46.4515 49.054H60.2328Z"
              fill="#EBEBEB"/>
    </g>
    <g id="HTML" >
        <path d="M22.9817 102.004L14.5554 7.5H107.143L98.7054 101.989L60.7929 112.5L22.9817 102.004Z" fill="#E44F26"/>
        <path d="M60.8492 104.468L91.4867 95.9738L98.6942 15.2288H60.8492V104.468Z" fill="#F1662A"/>
        <path d="M60.8492 50.2762H45.5117L44.4542 38.4075H60.8492V26.8162H31.7867L32.0642 29.9287L34.9104 61.8675H60.8492V50.2762ZM60.8492 80.3775L60.7967 80.3925L47.8892 76.9087L47.0642 67.665H35.4279L37.0517 85.86L60.7967 92.4525L60.8492 92.4375V80.3775Z"
              fill="#EBEBEB"/>
        <path d="M60.8079 50.2762V61.8675H75.0804L73.7379 76.9012L60.8079 80.3887V92.4487L84.5717 85.86L84.7442 83.9025L87.4667 53.3887L87.7517 50.2762H60.8079ZM60.8079 26.8162V38.4075H88.8054L89.0379 35.805L89.5667 29.9287L89.8442 26.8162H60.8079Z"
              fill="white"/>
    </g>
    <g id="js">
        <path d="M18.774,19.7a3.727,3.727,0,0,0,3.376,2.078c1.418,0,2.324-.709,2.324-1.688,0-1.173-.931-1.589-2.491-2.272l-.856-.367c-2.469-1.052-4.11-2.37-4.11-5.156,0-2.567,1.956-4.52,5.012-4.52A5.058,5.058,0,0,1,26.9,10.52l-2.665,1.711a2.327,2.327,0,0,0-2.2-1.467,1.489,1.489,0,0,0-1.638,1.467c0,1.027.636,1.442,2.1,2.078l.856.366c2.908,1.247,4.549,2.518,4.549,5.376,0,3.081-2.42,4.769-5.671,4.769a6.575,6.575,0,0,1-6.236-3.5ZM6.686,20c.538.954,1.027,1.76,2.2,1.76,1.124,0,1.834-.44,1.834-2.15V7.975h3.422V19.658c0,3.543-2.078,5.156-5.11,5.156A5.312,5.312,0,0,1,3.9,21.688Z" style="fill:#f5de19"/>
    </g>

    <!--contacts-->
    <g id="instagramGray">
        <path fill-rule="evenodd" clip-rule="evenodd" d="M11.9962 0.0078125C8.73824 0.0078125 8.32971 0.021622 7.05019 0.080003C5.77333 0.138241 4.90129 0.341051 4.13824 0.637622C3.34938 0.944146 2.68038 1.35434 2.01343 2.02124C1.34652 2.68819 0.936333 3.35719 0.629809 4.14605C0.333238 4.9091 0.130429 5.78115 0.0721905 7.058C0.0138095 8.33753 0 8.74605 0 12.0041C0 15.262 0.0138095 15.6705 0.0721905 16.9501C0.130429 18.2269 0.333238 19.099 0.629809 19.862C0.936333 20.6509 1.34652 21.3199 2.01343 21.9868C2.68038 22.6537 3.34938 23.0639 4.13824 23.3705C4.90129 23.667 5.77333 23.8698 7.05019 23.9281C8.32971 23.9864 8.73824 24.0002 11.9962 24.0002C15.2542 24.0002 15.6627 23.9864 16.9422 23.9281C18.2191 23.8698 19.0911 23.667 19.8542 23.3705C20.643 23.0639 21.312 22.6537 21.979 21.9868C22.6459 21.3199 23.0561 20.6509 23.3627 19.862C23.6592 19.099 23.862 18.2269 23.9202 16.9501C23.9786 15.6705 23.9924 15.262 23.9924 12.0041C23.9924 8.74605 23.9786 8.33753 23.9202 7.058C23.862 5.78115 23.6592 4.9091 23.3627 4.14605C23.0561 3.35719 22.6459 2.68819 21.979 2.02124C21.312 1.35434 20.643 0.944146 19.8542 0.637622C19.0911 0.341051 18.2191 0.138241 16.9422 0.080003C15.6627 0.021622 15.2542 0.0078125 11.9962 0.0078125ZM11.9962 2.16929C15.1993 2.16929 15.5788 2.18153 16.8437 2.23924C18.0133 2.29257 18.6485 2.488 19.0712 2.65229C19.6312 2.86991 20.0308 3.12986 20.4506 3.54967C20.8704 3.96943 21.1303 4.36905 21.348 4.929C21.5122 5.35172 21.7077 5.98691 21.761 7.15653C21.8187 8.42148 21.831 8.80091 21.831 12.0041C21.831 15.2071 21.8187 15.5866 21.761 16.8515C21.7077 18.0211 21.5122 18.6563 21.348 19.0791C21.1303 19.639 20.8704 20.0386 20.4506 20.4584C20.0308 20.8782 19.6312 21.1381 19.0712 21.3558C18.6485 21.5201 18.0133 21.7155 16.8437 21.7688C15.579 21.8265 15.1996 21.8388 11.9962 21.8388C8.79286 21.8388 8.41352 21.8265 7.14871 21.7688C5.97909 21.7155 5.3439 21.5201 4.92119 21.3558C4.36124 21.1381 3.96162 20.8782 3.54186 20.4584C3.1221 20.0386 2.8621 19.639 2.64448 19.0791C2.48019 18.6563 2.28476 18.0211 2.23143 16.8515C2.17371 15.5866 2.16148 15.2071 2.16148 12.0041C2.16148 8.80091 2.17371 8.42148 2.23143 7.15653C2.28476 5.98691 2.48019 5.35172 2.64448 4.929C2.8621 4.36905 3.12205 3.96943 3.54186 3.54967C3.96162 3.12986 4.36124 2.86991 4.92119 2.65229C5.3439 2.488 5.97909 2.29257 7.14871 2.23924C8.41367 2.18153 8.7931 2.16929 11.9962 2.16929ZM11.9962 16.0028C9.78776 16.0028 7.99748 14.2125 7.99748 12.0041C7.99748 9.79558 9.78776 8.00529 11.9962 8.00529C14.2047 8.00529 15.995 9.79558 15.995 12.0041C15.995 14.2125 14.2047 16.0028 11.9962 16.0028ZM11.9962 5.84381C8.594 5.84381 5.836 8.60181 5.836 12.0041C5.836 15.4062 8.594 18.1642 11.9962 18.1642C15.3984 18.1642 18.1564 15.4062 18.1564 12.0041C18.1564 8.60181 15.3984 5.84381 11.9962 5.84381ZM18.3998 7.03996C19.1949 7.03996 19.8394 6.39548 19.8394 5.60043C19.8394 4.80538 19.1949 4.16086 18.3998 4.16086C17.6048 4.16086 16.9603 4.80538 16.9603 5.60043C16.9603 6.39548 17.6048 7.03996 18.3998 7.03996Z" fill="#758CA3"/>
    </g>
    <g id="telegramGray">
        <path fill-rule="evenodd" clip-rule="evenodd" d="M23.1117 4.49449C23.4296 2.94472 21.9074 1.65683 20.4317 2.227L2.3425 9.21601C0.694517 9.85273 0.621087 12.1572 2.22518 12.8975L6.1645 14.7157L8.03849 21.2746C8.13583 21.6153 8.40618 21.8791 8.74917 21.968C9.09216 22.0568 9.45658 21.9576 9.70712 21.707L12.5938 18.8203L16.6375 21.8531C17.8113 22.7334 19.5019 22.0922 19.7967 20.6549L23.1117 4.49449ZM3.0633 11.0816L21.1525 4.0926L17.8375 20.2531L13.1 16.6999C12.7019 16.4013 12.1448 16.4409 11.7929 16.7928L10.5565 18.0292L10.928 15.9861L18.2071 8.70703C18.5614 8.35278 18.5988 7.79106 18.2947 7.39293C17.9906 6.99479 17.4389 6.88312 17.0039 7.13168L6.95124 12.876L3.0633 11.0816ZM8.17695 14.4791L8.78333 16.6015L9.01614 15.321C9.05253 15.1209 9.14908 14.9366 9.29291 14.7928L11.5128 12.573L8.17695 14.4791Z" fill="#758CA3"/>
    </g>
    <g id="linkedinGray">
        <path fill-rule="evenodd" clip-rule="evenodd" d="M5.37214 24H0.396429V7.97674H5.37214V24ZM2.88161 5.79102C1.29054 5.79102 0 4.47317 0 2.8821C2.37147e-08 1.29063 1.29014 0.000488281 2.88161 0.000488281C4.47307 0.000488281 5.76321 1.29063 5.76321 2.8821C5.76321 4.47317 4.47214 5.79102 2.88161 5.79102ZM23.9946 24H19.0296V16.2C19.0296 14.341 18.9921 11.9571 16.4427 11.9571C13.8557 11.9571 13.4593 13.9767 13.4593 16.066V24H8.48893V7.97674H13.2611V10.1625H13.3307C13.995 8.90352 15.6177 7.57495 18.0386 7.57495C23.0743 7.57495 24 10.891 24 15.1982V24H23.9946Z" fill="#758CA3"/>
    </g>

    <g id="instagram">
        <path d="M12 0C8.74 0 8.333.015 7.053.072 5.775.132 4.905.333 4.14.63c-.789.306-1.459.717-2.126 1.384S.935 3.35.63 4.14C.333 4.905.131 5.775.072 7.053.012 8.333 0 8.74 0 12s.015 3.667.072 4.947c.06 1.277.261 2.148.558 2.913.306.788.717 1.459 1.384 2.126.667.666 1.336 1.079 2.126 1.384.766.296 1.636.499 2.913.558C8.333 23.988 8.74 24 12 24s3.667-.015 4.947-.072c1.277-.06 2.148-.262 2.913-.558.788-.306 1.459-.718 2.126-1.384.666-.667 1.079-1.335 1.384-2.126.296-.765.499-1.636.558-2.913.06-1.28.072-1.687.072-4.947s-.015-3.667-.072-4.947c-.06-1.277-.262-2.149-.558-2.913-.306-.789-.718-1.459-1.384-2.126C21.319 1.347 20.651.935 19.86.63c-.765-.297-1.636-.499-2.913-.558C15.667.012 15.26 0 12 0zm0 2.16c3.203 0 3.585.016 4.85.071 1.17.055 1.805.249 2.227.415.562.217.96.477 1.382.896.419.42.679.819.896 1.381.164.422.36 1.057.413 2.227.057 1.266.07 1.646.07 4.85s-.015 3.585-.074 4.85c-.061 1.17-.256 1.805-.421 2.227-.224.562-.479.96-.899 1.382-.419.419-.824.679-1.38.896-.42.164-1.065.36-2.235.413-1.274.057-1.649.07-4.859.07-3.211 0-3.586-.015-4.859-.074-1.171-.061-1.816-.256-2.236-.421-.569-.224-.96-.479-1.379-.899-.421-.419-.69-.824-.9-1.38-.165-.42-.359-1.065-.42-2.235-.045-1.26-.061-1.649-.061-4.844 0-3.196.016-3.586.061-4.861.061-1.17.255-1.814.42-2.234.21-.57.479-.96.9-1.381.419-.419.81-.689 1.379-.898.42-.166 1.051-.361 2.221-.421 1.275-.045 1.65-.06 4.859-.06l.045.03zm0 3.678c-3.405 0-6.162 2.76-6.162 6.162 0 3.405 2.76 6.162 6.162 6.162 3.405 0 6.162-2.76 6.162-6.162 0-3.405-2.76-6.162-6.162-6.162zM12 16c-2.21 0-4-1.79-4-4s1.79-4 4-4 4 1.79 4 4-1.79 4-4 4zm7.846-10.405c0 .795-.646 1.44-1.44 1.44-.795 0-1.44-.646-1.44-1.44 0-.794.646-1.439 1.44-1.439.793-.001 1.44.645 1.44 1.439z" fill="#ffffff"/>
    </g>
    <g id="telegram">
        <rect fill="#343549" height="60" rx="10" width="60"/><path d="M49.281,11.425,9.305,26.417a2.01,2.01,0,0,0-.087,3.73l9.471,4.059,19.9-13.268a.5.5,0,0,1,.634.774l-14.5,14.5V46.268l6.031-6.031,9.6,8a2.01,2.01,0,0,0,3.237-1.057L51.938,13.8A2.011,2.011,0,0,0,49.281,11.425Z" fill="#f1f3f4"/><path d="M41.634,50.207a3.493,3.493,0,0,1-2.241-.816l-8.549-7.124-5.063,5.062a1.5,1.5,0,0,1-2.56-1.06V36.217a1.5,1.5,0,0,1,.439-1.061l7.382-7.382-11.521,7.68a1.5,1.5,0,0,1-1.422.131L8.628,31.526a3.51,3.51,0,0,1,.15-6.513L48.755,10.021a3.511,3.511,0,0,1,4.638,4.138L45.046,47.546a3.49,3.49,0,0,1-2.316,2.485A3.553,3.553,0,0,1,41.634,50.207ZM30.752,38.737a1.5,1.5,0,0,1,.96.348l9.6,8a.506.506,0,0,0,.486.094.5.5,0,0,0,.337-.362l8.346-33.386a.51.51,0,0,0-.673-.6h0L9.831,27.821a.511.511,0,0,0-.021.948l8.723,3.738L37.759,19.69a2,2,0,0,1,2.526,3.082L26.221,36.838v5.809l3.47-3.47A1.5,1.5,0,0,1,30.752,38.737ZM49.281,11.426h0Z" fill="#8d9cf4"/><path d="M9.305,27.917a1.5,1.5,0,0,1-.527-2.9L48.755,10.021a3.511,3.511,0,0,1,4.638,4.138,1.5,1.5,0,0,1-2.911-.726.511.511,0,0,0-.673-.6L9.831,27.821A1.476,1.476,0,0,1,9.305,27.917Z" fill="#7bcdd1"/>
    </g>
    <g id="linkedin">
        <path fill-rule="evenodd" clip-rule="evenodd" d="M5.37214 24H0.396429V7.97674H5.37214V24ZM2.88161 5.79102C1.29054 5.79102 0 4.47317 0 2.8821C2.37147e-08 1.29063 1.29014 0.000488281 2.88161 0.000488281C4.47307 0.000488281 5.76321 1.29063 5.76321 2.8821C5.76321 4.47317 4.47214 5.79102 2.88161 5.79102ZM23.9946 24H19.0296V16.2C19.0296 14.341 18.9921 11.9571 16.4427 11.9571C13.8557 11.9571 13.4593 13.9767 13.4593 16.066V24H8.48893V7.97674H13.2611V10.1625H13.3307C13.995 8.90352 15.6177 7.57495 18.0386 7.57495C23.0743 7.57495 24 10.891 24 15.1982V24H23.9946Z" fill="#007EBB"/>
    </g>

</svg>
