<svg width="314" height="314" viewBox="0 0 314 314" fill="none" xmlns="http://www.w3.org/2000/svg">
    <g id="logo">
        <path d="M0.0546875 15.7949V21.1035L15.1016 28.4512V22.9492L5.13477 18.4492L15.1016 13.9668V8.46484L0.0546875 15.7949ZM34.3145 0.976562L18.2656 36.0449H23.8027L39.8516 0.976562H34.3145Z"
              fill="#00C4F0"/>
    </g>

    <!--skills-->
    <g id="ts">
        <path d="M23.827,8.243A4.424,4.424,0,0,1,26.05,9.524a5.853,5.853,0,0,1,.852,1.143c.011.045-1.534,1.083-2.471,1.662-.034.023-.169-.124-.322-.35a2.014,2.014,0,0,0-1.67-1c-1.077-.074-1.771.49-1.766,1.433a1.3,1.3,0,0,0,.153.666c.237.49.677.784,2.059,1.383,2.544,1.095,3.636,1.817,4.31,2.843a5.158,5.158,0,0,1,.416,4.333,4.764,4.764,0,0,1-3.932,2.815,10.9,10.9,0,0,1-2.708-.028,6.531,6.531,0,0,1-3.616-1.884,6.278,6.278,0,0,1-.926-1.371,2.655,2.655,0,0,1,.327-.208c.158-.09.756-.434,1.32-.761L19.1,19.6l.214.312a4.771,4.771,0,0,0,1.35,1.292,3.3,3.3,0,0,0,3.458-.175,1.545,1.545,0,0,0,.2-1.974c-.276-.395-.84-.727-2.443-1.422a8.8,8.8,0,0,1-3.349-2.055,4.687,4.687,0,0,1-.976-1.777,7.116,7.116,0,0,1-.062-2.268,4.332,4.332,0,0,1,3.644-3.374A9,9,0,0,1,23.827,8.243ZM15.484,9.726l.011,1.454h-4.63V24.328H7.6V11.183H2.97V9.755A13.986,13.986,0,0,1,3.01,8.289c.017-.023,2.832-.034,6.245-.028l6.211.017Z" style="fill:#007acc"/>
    </g>
    <g id="figma">
        <path fill-rule="evenodd" clip-rule="evenodd"
              d="M104.667 157C104.667 128.098 128.098 104.667 157 104.667C185.902 104.667 209.333 128.098 209.333 157C209.333 185.902 185.902 209.333 157 209.333C128.098 209.333 104.667 185.902 104.667 157Z"
              fill="#1ABCFE"/>
        <path fill-rule="evenodd" clip-rule="evenodd"
              d="M0 261.667C0 232.764 23.4304 209.333 52.3333 209.333H104.667V261.667C104.667 290.569 81.2357 314 52.3333 314C23.4304 314 0 290.569 0 261.667Z"
              fill="#0ACF83"/>
        <path fill-rule="evenodd" clip-rule="evenodd"
              d="M104.667 0V104.667H157C185.902 104.667 209.333 81.2357 209.333 52.3333C209.333 23.4304 185.902 0 157 0H104.667Z"
              fill="#FF7262"/>
        <path fill-rule="evenodd" clip-rule="evenodd"
              d="M0 52.3333C0 81.2357 23.4304 104.667 52.3333 104.667H104.667V0H52.3333C23.4304 0 0 23.4304 0 52.3333Z"
              fill="#F24E1E"/>
        <path fill-rule="evenodd" clip-rule="evenodd"
              d="M0 157C0 185.902 23.4304 209.333 52.3333 209.333H104.667V104.667H52.3333C23.4304 104.667 0 128.098 0 157Z"
              fill="#A259FF"/>
    </g>
    <g id="git">
        <path fill-rule="evenodd" clip-rule="evenodd"
              d="M44 0C19.69 0 0 19.69 0 44C0 63.47 12.595 79.915 30.085 85.745C32.285 86.13 33.11 84.81 33.11 83.655C33.11 82.61 33.055 79.145 33.055 75.46C22 77.495 19.14 72.765 18.26 70.29C17.765 69.025 15.62 65.12 13.75 64.075C12.21 63.25 10.01 61.215 13.695 61.16C17.16 61.105 19.635 64.35 20.46 65.67C24.42 72.325 30.745 70.455 33.275 69.3C33.66 66.44 34.815 64.515 36.08 63.415C26.29 62.315 16.06 58.52 16.06 41.69C16.06 36.905 17.765 32.945 20.57 29.865C20.13 28.765 18.59 24.255 21.01 18.205C21.01 18.205 24.695 17.05 33.11 22.715C36.63 21.725 40.37 21.23 44.11 21.23C47.85 21.23 51.59 21.725 55.11 22.715C63.525 16.995 67.21 18.205 67.21 18.205C69.63 24.255 68.09 28.765 67.65 29.865C70.455 32.945 72.16 36.85 72.16 41.69C72.16 58.575 61.875 62.315 52.085 63.415C53.68 64.79 55.055 67.43 55.055 71.555C55.055 77.44 55 82.17 55 83.655C55 84.81 55.825 86.185 58.025 85.745C66.7597 82.796 74.3497 77.1822 79.7268 69.6937C85.1039 62.2052 87.9974 53.219 88 44C88 19.69 68.31 0 44 0Z"
              fill="black"/>
    </g>
    <g id="react">
        <path d="M93.1056 32.7027C91.9031 32.2887 90.6904 31.9051 89.4687 31.5523C89.6739 30.7106 89.8628 29.8792 90.0305 29.0623C92.7838 15.6483 90.9839 4.84178 84.8361 1.28375C78.9416 -2.12722 69.3016 1.42949 59.5659 9.93342C58.6064 10.773 57.6682 11.6368 56.7521 12.524C56.1389 11.934 55.5149 11.3556 54.8803 10.7888C44.6767 1.69616 34.4493 -2.13608 28.3081 1.43215C22.4189 4.85374 20.675 15.0127 23.1538 27.7254C23.4004 28.9844 23.6788 30.237 23.9888 31.4819C22.5411 31.8947 21.1442 32.3342 19.8073 32.8019C7.84441 36.9881 0.204742 43.5483 0.204742 50.3529C0.204742 57.3808 8.40627 64.43 20.8661 68.7043C21.8763 69.0495 22.8948 69.3692 23.9209 69.6634C23.5876 71.0042 23.2918 72.354 23.0337 73.7114C20.6706 86.2035 22.516 96.1223 28.3893 99.5222C34.4555 103.033 44.637 99.4247 54.5506 90.7268C55.3545 90.0196 56.1407 89.2925 56.9084 88.546C57.9004 89.5066 58.9189 90.4393 59.9627 91.343C69.566 99.6365 79.0501 102.985 84.9177 99.5762C90.9782 96.055 92.948 85.3995 90.3907 72.4356C90.1892 71.42 89.9633 70.4094 89.7132 69.4047C90.4282 69.1921 91.13 68.9732 91.8141 68.7455C104.767 64.4384 113.195 57.4747 113.195 50.3529C113.195 43.5234 105.309 36.919 93.1056 32.7027ZM90.2962 64.1474C89.6783 64.3525 89.0445 64.5505 88.3983 64.7432C86.9683 60.1995 85.0386 55.3684 82.6769 50.3764C84.9305 45.5036 86.786 40.734 88.1759 36.22C89.3318 36.5558 90.4534 36.9097 91.5347 37.2832C101.991 40.8961 108.369 46.2372 108.369 50.3529C108.369 54.7367 101.481 60.4277 90.2962 64.1474ZM85.6557 73.3765C86.7865 79.1087 86.9476 84.2916 86.1986 88.3435C85.5259 91.9844 84.1727 94.4115 82.499 95.3839C78.9385 97.4526 71.3235 94.7637 63.111 87.6706C62.1401 86.8305 61.1927 85.9634 60.2699 85.0703C63.4539 81.5756 66.6357 77.5131 69.7412 73.0008C75.2036 72.5144 80.3641 71.7188 85.0439 70.6331C85.2694 71.5426 85.4734 72.4573 85.6557 73.3765ZM38.7257 95.0264C35.2468 96.2592 32.4759 96.2946 30.8009 95.3254C27.2369 93.2624 25.7552 85.298 27.7762 74.6151C28.0165 73.3527 28.2915 72.0972 28.6011 70.8502C33.2293 71.8779 38.3523 72.6168 43.8275 73.0624C46.9542 77.4776 50.2278 81.5358 53.5271 85.0894C52.8259 85.7703 52.1082 86.4338 51.3745 87.0793C46.9904 90.9252 42.5974 93.654 38.7257 95.0264ZM22.4277 64.1204C16.9181 62.2302 12.368 59.7738 9.24929 57.0933C6.44659 54.6848 5.032 52.2932 5.032 50.3529C5.032 46.2234 11.1657 40.9564 21.3962 37.3766C22.6378 36.9425 23.9372 36.5327 25.2856 36.1482C26.6997 40.7641 28.5544 45.5904 30.7925 50.4707C28.5252 55.4233 26.6441 60.3267 25.2163 64.997C24.2797 64.7278 23.3499 64.4355 22.4277 64.1204ZM27.891 26.7947C25.7676 15.9031 27.1777 7.68706 30.7268 5.62497C34.5067 3.42867 42.8653 6.56011 51.6755 14.4115C52.25 14.9247 52.8152 15.4482 53.3708 15.9819C50.0879 19.52 46.8443 23.548 43.7454 27.9371C38.4313 28.4315 33.3445 29.2253 28.6678 30.2889C28.3797 29.131 28.1206 27.9661 27.891 26.7951V26.7947ZM76.6301 38.8739C75.5255 36.9589 74.3798 35.0679 73.194 33.2024C76.7991 33.66 80.2533 34.2673 83.4969 35.0098C82.5233 38.1425 81.3095 41.4175 79.8808 44.7753C78.8365 42.7867 77.7527 40.8191 76.6301 38.8739ZM56.7544 19.4443C58.9806 21.8652 61.2104 24.5678 63.4036 27.5003C58.9546 27.2894 54.4982 27.2886 50.0491 27.4977C52.2444 24.5922 54.4932 21.8931 56.7544 19.4443ZM36.751 38.9071C35.6425 40.8367 34.5789 42.792 33.5613 44.7713C32.1559 41.4255 30.9532 38.1355 29.9712 34.9584C33.1949 34.2346 36.6327 33.6427 40.2149 33.1935C39.0159 35.0704 37.8609 36.9754 36.751 38.9067V38.9071ZM40.3177 67.8569C36.6169 67.4423 33.1274 66.881 29.9045 66.1767C30.902 62.9429 32.1312 59.5829 33.567 56.1653C34.5887 58.1461 35.6567 60.1026 36.77 62.033C37.9149 64.0176 39.1004 65.9614 40.3177 67.8569ZM56.8876 81.6027C54.5996 79.1255 52.3177 76.3848 50.0892 73.4372C52.2528 73.5222 54.4583 73.5656 56.7001 73.5656C59.0031 73.5656 61.2797 73.5138 63.5205 73.4137C61.3203 76.4145 59.0989 79.1592 56.8876 81.6027ZM79.9263 55.9907C81.4366 59.446 82.7095 62.7883 83.7203 65.9667C80.4444 66.7171 76.9073 67.3214 73.1804 67.7701C74.3746 65.8699 75.5311 63.9461 76.6491 61.9998C77.7858 60.0214 78.8784 58.0179 79.9263 55.9907ZM72.468 59.5794C70.7564 62.5634 68.9487 65.4909 67.0475 68.357C63.6038 68.6018 60.1524 68.7234 56.7001 68.7216C53.1837 68.7216 49.7635 68.6118 46.47 68.3974C44.5192 65.5378 42.677 62.6053 40.9471 59.6059H40.9476C39.2259 56.6225 37.6177 53.5745 36.1265 50.4685C37.6139 47.3618 39.2172 44.3124 40.933 41.3267L40.9326 41.3271C42.6477 38.3407 44.4753 35.4206 46.4113 32.5734C49.7714 32.3182 53.2172 32.1853 56.6996 32.1853H56.7001C60.1984 32.1853 63.6485 32.3195 67.0078 32.5765C68.9243 35.4195 70.7402 38.3295 72.4521 41.301C74.1736 44.2801 75.7981 47.3147 77.3231 50.3999C75.8138 53.5166 74.1944 56.5783 72.468 59.5794ZM82.4253 5.48056C86.2087 7.67067 87.6802 16.5024 85.303 28.0842C85.1512 28.8231 84.9808 29.5757 84.7954 30.339C80.1072 29.2528 75.0169 28.4452 69.6874 27.9433C66.5828 23.506 63.3656 19.4717 60.1361 15.9792C60.9825 15.1604 61.849 14.3628 62.7349 13.5871C71.0768 6.30141 78.8732 3.42468 82.4253 5.48056ZM56.7001 40.2263C62.2724 40.2263 66.7898 44.7603 66.7898 50.3529C66.7898 55.9456 62.2724 60.4795 56.7001 60.4795C51.1278 60.4795 46.6104 55.9456 46.6104 50.3529C46.6104 44.7603 51.1278 40.2263 56.7001 40.2263Z"
              fill="#00D8FF"/>
    </g>
    <g id="css">
        <path d="M22.3653 101.154L13.9428 7.4375H106.523L98.089 101.139L60.1765 111.562L22.3653 101.154Z"
              fill="#1572B6"/>
        <path d="M60.2328 103.597L90.8703 95.174L98.0778 15.1019H60.2328V103.597Z" fill="#33A9DC"/>
        <path d="M60.2328 49.054H75.5703L76.6278 37.2842H60.2328V25.7896H89.2953L89.0178 28.8724L86.1715 60.5487H60.2328V49.054Z"
              fill="white"/>
        <path d="M60.304 78.9045L60.2515 78.9193L47.344 75.4609L46.519 66.2942H34.8828L36.5065 84.3413L60.2478 90.8788L60.304 90.864V78.9045Z"
              fill="#EBEBEB"/>
        <path d="M74.584 60.0615L73.189 75.4534L60.2628 78.9119V90.8714L84.0228 84.3412L84.199 82.4001L86.2128 60.0615H74.584Z"
              fill="white"/>
        <path d="M60.274 25.7896V37.2842H32.2765L32.044 34.6997L31.5153 28.8724L31.2378 25.7896H60.274ZM60.2328 49.054V60.5487H47.4865L47.254 57.9642L46.729 52.1369L46.4515 49.054H60.2328Z"
              fill="#EBEBEB"/>
    </g>
    <g id="HTML" >
        <path d="M22.9817 102.004L14.5554 7.5H107.143L98.7054 101.989L60.7929 112.5L22.9817 102.004Z" fill="#E44F26"/>
        <path d="M60.8492 104.468L91.4867 95.9738L98.6942 15.2288H60.8492V104.468Z" fill="#F1662A"/>
        <path d="M60.8492 50.2762H45.5117L44.4542 38.4075H60.8492V26.8162H31.7867L32.0642 29.9287L34.9104 61.8675H60.8492V50.2762ZM60.8492 80.3775L60.7967 80.3925L47.8892 76.9087L47.0642 67.665H35.4279L37.0517 85.86L60.7967 92.4525L60.8492 92.4375V80.3775Z"
              fill="#EBEBEB"/>
        <path d="M60.8079 50.2762V61.8675H75.0804L73.7379 76.9012L60.8079 80.3887V92.4487L84.5717 85.86L84.7442 83.9025L87.4667 53.3887L87.7517 50.2762H60.8079ZM60.8079 26.8162V38.4075H88.8054L89.0379 35.805L89.5667 29.9287L89.8442 26.8162H60.8079Z"
              fill="white"/>
    </g>
    <g id="js">
        <path d="M18.774,19.7a3.727,3.727,0,0,0,3.376,2.078c1.418,0,2.324-.709,2.324-1.688,0-1.173-.931-1.589-2.491-2.272l-.856-.367c-2.469-1.052-4.11-2.37-4.11-5.156,0-2.567,1.956-4.52,5.012-4.52A5.058,5.058,0,0,1,26.9,10.52l-2.665,1.711a2.327,2.327,0,0,0-2.2-1.467,1.489,1.489,0,0,0-1.638,1.467c0,1.027.636,1.442,2.1,2.078l.856.366c2.908,1.247,4.549,2.518,4.549,5.376,0,3.081-2.42,4.769-5.671,4.769a6.575,6.575,0,0,1-6.236-3.5ZM6.686,20c.538.954,1.027,1.76,2.2,1.76,1.124,0,1.834-.44,1.834-2.15V7.975h3.422V19.658c0,3.543-2.078,5.156-5.11,5.156A5.312,5.312,0,0,1,3.9,21.688Z" style="fill:#f5de19"/>
    </g>
    <g id="styledComponents" clip-path="url(#clip0_1_3263)">
        <path d="M68.7672 118.279C68.9472 117.872 69.4014 117.589 69.7314 117.246C74.7665 111.967 79.8444 106.735 84.811 101.391C86.3651 99.9558 87.5661 98.1804 88.3199 96.2036C89.0737 94.2269 89.36 92.1026 89.1562 89.9968C89.0003 89.0951 88.7957 88.2025 88.5434 87.3229C87.1893 88.6084 85.9294 89.7783 84.661 90.9567C82.6898 92.7908 80.7272 94.6334 78.7389 96.4461C77.5664 97.6415 76.0589 98.4531 74.4155 98.7737C72.772 99.0943 71.07 98.9087 69.5342 98.2416C67.9796 97.6705 66.6269 96.6553 65.6442 95.3221C64.6614 93.9889 64.0919 92.3965 64.0063 90.7425C63.9603 90.5297 63.8987 90.3206 63.8221 90.1168C62.3094 91.4024 60.861 92.5851 59.4254 93.8021L29.5875 119.085C29.3818 119.261 29.159 119.479 28.9662 119.65H68.7458L68.6858 119.612C68.4715 119.462 68.5829 118.673 68.7672 118.279Z" fill="#FFCEBF"/>
        <path d="M27.1436 118.279C27.4974 117.818 27.9245 117.418 28.4077 117.096L69.7 82.0642C72.5168 79.6731 75.3207 77.2691 78.1118 74.8522C78.4567 74.6118 78.727 74.2791 78.8918 73.8924C79.5594 70.9831 79.654 67.9717 79.1703 65.0263C78.7418 65.3262 78.5104 65.4548 78.3132 65.6648C74.9322 68.6901 71.5683 71.7412 68.1702 74.7494C67.0445 75.8824 65.5885 76.6292 64.0116 76.8825C62.4346 77.1359 60.818 76.8826 59.3941 76.1592C57.9414 75.4734 56.7256 74.3709 55.9014 72.992C55.0773 71.6131 54.682 70.0201 54.766 68.4159V67.0275C54.1447 67.4817 53.6905 67.7859 53.2662 68.1287C36.7396 81.3615 20.2159 94.5842 3.69496 107.797C2.94933 108.393 2.05801 109.721 1.08098 108.431C0.103957 107.141 1.59092 106.61 2.34083 106.01C19.953 91.8774 37.5738 77.7576 55.2031 63.6507C58.0742 61.3496 58.2628 60.3854 56.3944 56.7301L55.2803 57.7757C52.2249 60.6168 49.1353 63.4193 46.1271 66.3075C44.8931 67.4978 43.3476 68.3148 41.6691 68.6641C39.9906 69.0135 38.2476 68.8809 36.6412 68.2818C35.0348 67.6827 33.6306 66.6415 32.5908 65.2784C31.5509 63.9153 30.9178 62.2858 30.7646 60.5782C30.1947 61.0067 29.7019 61.3196 29.2348 61.6838L3.09503 81.9443C2.64419 82.3864 2.13005 82.7591 1.5695 83.0498C1.14643 83.1777 0.692134 83.155 0.283936 82.9856V119.671H27.0922C26.9925 119.451 26.9453 119.21 26.9542 118.969C26.9631 118.727 27.028 118.491 27.1436 118.279Z" fill="#FFCEBF"/>
        <path d="M99.5654 1.82096C98.8369 4.20782 98.1298 6.59897 97.4913 9.01154C96.9016 10.7164 96.9702 12.5802 97.6837 14.2371C98.3972 15.8941 99.7041 17.2246 101.348 17.9676C106.376 20.6107 112.043 21.798 117.709 21.3958V2.22806C117.646 1.80781 117.669 1.37914 117.777 0.968207C117.897 0.73576 118.049 0.520916 118.227 0.329712H99.5482C99.8353 0.663958 99.7368 1.25103 99.5654 1.82096Z" fill="#FF6196"/>
        <path d="M62.0511 42.9976C61.9623 45.137 61.2139 47.1966 59.9085 48.894C55.242 54.9179 49.8829 60.3719 43.9418 65.1435C42.9837 66.0304 41.7694 66.591 40.473 66.745C39.1766 66.8989 37.8647 66.6383 36.7255 66.0005C35.5917 65.5161 34.6357 64.6925 33.9889 63.6428C33.342 62.5932 33.0361 61.369 33.1131 60.1384C33.2503 58.627 33.8779 57.202 34.9 56.0803C41.5435 49.7455 48.7415 44.019 56.4075 38.9695C56.9096 38.5758 57.5227 38.3499 58.1602 38.3237C58.7977 38.2976 59.4273 38.4725 59.9599 38.8238C60.66 39.2585 61.2259 39.8786 61.5951 40.6153C61.9642 41.352 62.122 42.1766 62.0511 42.9976Z" fill="#FF87AF"/>
        <path d="M56.9127 68.97C56.8132 68.0228 56.9348 67.0654 57.2679 66.1731C57.6011 65.2809 58.1366 64.478 58.8325 63.8277C65.3374 57.8281 72.3164 52.3638 79.7014 47.4883C79.9243 47.3468 80.13 47.2054 80.3742 47.0597C81.0193 46.594 81.8009 46.356 82.596 46.3832C83.3912 46.4103 84.1547 46.7011 84.7665 47.2097C85.3585 47.7112 85.7774 48.3865 85.9635 49.1396C86.1497 49.8928 86.0937 50.6854 85.8036 51.4049C84.8693 54.5168 83.1449 57.3337 80.7984 59.5811C76.033 64.2758 71.1755 68.8762 66.2287 73.3795C65.4838 74.1456 64.5052 74.6422 63.447 74.7911C62.3889 74.9401 61.3112 74.7329 60.3837 74.2022C59.4091 73.6958 58.5792 72.9499 57.9721 72.0347C57.3649 71.1194 57.0004 70.0648 56.9127 68.97Z" fill="#FF87AF"/>
        <path d="M87.8344 71.8015C86.6346 73.0871 85.4004 74.3126 84.2477 75.6282C83.9011 76.1367 83.6136 76.683 83.3907 77.2566C84.0249 77.4451 84.7662 77.9422 85.2804 77.7665C87.8987 76.888 90.4527 75.8339 93.3281 74.724C92.7024 76.1638 92.231 77.4922 91.5668 78.7092C88.8305 83.3078 85.4038 87.4587 81.4066 91.0164C79.8868 92.4819 78.3084 93.8832 76.6715 95.2201C75.8046 95.9395 74.7622 96.4157 73.6509 96.6001C72.5396 96.7844 71.3992 96.6702 70.3465 96.2692C69.2938 95.8681 68.3665 95.1947 67.6595 94.3176C66.9525 93.4406 66.4912 92.3916 66.3227 91.2778C66.254 90.6585 66.3087 90.0317 66.4838 89.4337C66.6589 88.8357 66.9507 88.2784 67.3426 87.7939C73.174 81.4614 79.8384 75.9503 87.1531 71.4115C87.242 71.3771 87.3363 71.3582 87.4316 71.3558L87.8344 71.8015Z" fill="#FF87AF"/>
        <path d="M97.6724 54.7335L105.004 22.1659L110.147 23.37L107.494 31.4305C105.017 38.9296 102.51 46.4287 100.093 53.9364C99.6221 55.3248 99.0051 55.5819 97.6724 54.7335Z" fill="#FF6196"/>
        <path d="M89.3859 73.8885C90.1615 70.9274 90.9328 68.1892 91.5842 65.421C92.219 62.7364 93.4264 60.2207 95.1238 58.0461C96.1651 56.6791 97.3349 57.2234 98.5305 57.519C99.6361 57.789 99.9146 58.5989 99.9618 59.6616C100.136 62.6005 99.2411 65.5031 97.4421 67.8335C95.3003 70.4887 92.5318 72.5695 89.3859 73.8885Z" fill="#FF6196"/>
        <path d="M119.944 3.83936C120.008 2.88498 119.983 1.92674 119.871 0.976845C119.783 0.711516 119.607 0.483621 119.374 0.329779C119.184 0.175101 118.961 0.0652523 118.723 0.00838844C118.585 -0.0173228 118.393 0.124089 118.208 0.325493C118.03 0.516698 117.878 0.731542 117.758 0.96399C117.65 1.37492 117.627 1.80359 117.69 2.22384V21.3873C112.023 21.7895 106.357 20.6022 101.329 17.9591C99.685 17.2161 98.3781 15.8856 97.6646 14.2286C96.951 12.5717 96.8824 10.7079 97.4722 9.00304C98.1107 6.59046 98.8178 4.19932 99.5462 1.81246C99.7177 1.24253 99.8162 0.655454 99.5462 0.321208C99.3961 0.158494 99.1888 0.0602123 98.9677 0.0469556C98.6847 0.0500088 98.4105 0.146413 98.1878 0.321208C97.8674 0.512888 97.6121 0.796593 97.4551 1.1354C96.598 3.70652 95.8438 6.30336 95.1882 8.9259C94.9407 9.95936 94.874 11.0279 94.9911 12.0841C95.1569 13.9952 95.8676 15.8186 97.0389 17.3377C98.2102 18.8569 99.7928 20.0081 101.599 20.6545C102.409 20.993 102.884 21.3273 102.657 22.3943C102.344 23.7484 102.04 25.1026 101.732 26.461C99.632 35.6656 97.5436 44.8745 95.4667 54.0877C95.4082 54.4985 95.2275 54.8822 94.9482 55.189C93.5793 56.2771 92.4291 57.6148 91.5586 59.1314C90.4493 61.1327 89.6817 63.3052 89.2875 65.5592C89.2118 66.2782 88.952 66.9655 88.5331 67.5548C88.1143 68.144 87.5505 68.6153 86.8963 68.9231C85.1094 69.8273 83.4682 70.9971 81.4841 72.2141C81.6164 69.8282 81.5906 67.4361 81.407 65.0535C81.256 64.3206 81.288 63.5618 81.5003 62.8442C81.7126 62.1267 82.0985 61.4725 82.624 60.9397C85.2375 58.3506 87.1005 55.1015 88.0148 51.538C88.2878 50.712 88.3627 49.8333 88.2333 48.9729C88.104 48.1126 87.774 47.2948 87.27 46.5856C86.7661 45.8764 86.1023 45.2957 85.3325 44.8905C84.5626 44.4853 83.7081 44.267 82.8382 44.2531C81.4298 44.2374 80.047 44.6304 78.8573 45.3844C74.7683 48.1767 70.7504 51.0715 66.8073 54.0663C64.4633 55.8318 62.2564 57.7858 59.9852 59.637C59.8873 59.5319 59.8025 59.4154 59.7324 59.2899C59.689 58.9744 59.604 58.6661 59.4796 58.3729C57.5812 55.4418 58.8968 53.3121 60.958 51.1223C63.1053 48.8714 64.2919 45.8727 64.2661 42.7619C64.3327 41.1769 63.8363 39.6194 62.8649 38.3653C62.3474 37.7286 61.7096 37.2001 60.988 36.8097C59.9629 36.2487 58.7908 36.0145 57.6289 36.1386C56.467 36.2627 55.3708 36.7391 54.4873 37.5039L53.2917 38.361C50.5621 40.315 47.7981 42.2177 45.1713 44.3089C41.3364 47.3705 37.5841 50.5341 33.9183 53.7963C32.2042 55.309 30.953 57.3744 29.1746 58.78C19.9014 66.1034 10.5297 73.294 1.1922 80.5317C0.871132 80.7232 0.575909 80.9551 0.313735 81.2216C0.286745 81.2606 0.263774 81.3023 0.245172 81.3459C0.0480521 81.8044 -0.119071 82.5629 0.112331 82.8414C0.169054 82.9019 0.23761 82.95 0.313735 82.9828C0.721934 83.1523 1.17623 83.175 1.5993 83.0471C2.15985 82.7563 2.67399 82.3837 3.12483 81.9415L29.2646 61.6811C29.7317 61.3168 30.2245 60.9869 30.7944 60.5755C30.9476 62.2831 31.5807 63.9125 32.6206 65.2757C33.6604 66.6388 35.0646 67.68 36.671 68.2791C38.2774 68.8782 40.0204 69.0107 41.6989 68.6614C43.3774 68.312 44.9229 67.4951 46.1569 66.3048C49.1565 63.4166 52.2547 60.6141 55.3101 57.773L56.4242 56.7274C58.2926 60.3827 58.104 61.3468 55.2329 63.648C37.5893 77.7663 19.9585 91.8875 2.34064 106.012C1.59073 106.611 0.108046 107.156 1.08079 108.433C2.05353 109.71 2.94914 108.394 3.69476 107.798C20.2242 94.5972 36.7423 81.3787 53.2489 68.1432C53.6774 67.8003 54.1273 67.4961 54.7487 67.0419V68.4303C54.6647 70.0345 55.0599 71.6275 55.8841 73.0064C56.7082 74.3853 57.924 75.4879 59.3767 76.1736C60.8007 76.897 62.4173 77.1503 63.9942 76.897C65.5711 76.6436 67.0271 75.8968 68.1528 74.7638C71.551 71.7642 74.9149 68.7045 78.2959 65.6792C78.5102 65.4863 78.7587 65.3406 79.153 65.0407C79.6367 67.9861 79.542 70.9975 78.8744 73.9068C78.7096 74.2936 78.4394 74.6262 78.0945 74.8667C75.3005 77.2807 72.4966 79.6847 69.6826 82.0787L28.4075 117.115C27.9243 117.437 27.4972 117.836 27.1434 118.297C27.0305 118.507 26.9672 118.741 26.9582 118.979C26.9493 119.217 26.9951 119.455 27.092 119.673C27.2856 119.818 27.5094 119.917 27.7468 119.964C27.9842 120.011 28.2291 120.004 28.4633 119.943C28.648 119.889 28.8181 119.794 28.9603 119.664C29.1746 119.493 29.3889 119.274 29.5817 119.099L59.4196 93.8158C60.8551 92.5988 62.3035 91.399 63.8162 90.1306C63.8928 90.3343 63.9544 90.5434 64.0005 90.7562C64.0861 92.4102 64.6556 94.0027 65.6383 95.3358C66.6211 96.669 67.9737 97.6842 69.5284 98.2553C71.0641 98.9225 72.7662 99.108 74.4096 98.7874C76.053 98.4669 77.5606 97.6552 78.733 96.4598C80.7213 94.6472 82.684 92.8045 84.6552 90.9705C85.9407 89.792 87.1834 88.6093 88.5376 87.3366C88.7898 88.2162 88.9944 89.1089 89.1503 90.0106C89.3473 92.1094 89.0578 94.2253 88.3042 96.1941C87.5506 98.1628 86.3532 99.9313 84.8051 101.362C79.8386 106.71 74.7606 111.942 69.7255 117.217C69.3955 117.56 68.9413 117.843 68.7613 118.25C68.5813 118.657 68.4657 119.454 68.6799 119.626L68.7399 119.664C69.1892 119.883 69.6945 119.959 70.1883 119.883C70.3267 119.854 70.45 119.777 70.5354 119.664C70.6554 119.54 70.7711 119.386 70.8868 119.27C74.9663 115.053 79.0672 110.858 83.1168 106.611C84.7513 104.955 86.288 103.205 87.7191 101.371C89.5851 99.3049 90.8224 96.7492 91.2855 94.0042C91.7486 91.2591 91.4181 88.439 90.3331 85.8754C90.2164 85.3037 90.3304 84.7092 90.6502 84.2213C90.9287 83.7413 91.2372 83.2742 91.5543 82.8114C92.569 81.494 93.4141 80.0544 94.0698 78.5262C95.3368 74.7758 97.2817 71.2898 99.8076 68.2417C100.969 66.7695 101.768 65.0448 102.14 63.207C102.512 61.3692 102.447 59.4696 101.95 57.6616C101.775 56.9741 101.775 56.2535 101.95 55.5661C104.119 48.8512 106.351 42.1577 108.562 35.4599L111.519 26.4867L112.432 23.7142C114.377 23.7142 116.211 23.6756 118.037 23.7142C119.554 23.757 120.017 23.0457 120 21.5715C119.91 15.658 119.944 9.74866 119.944 3.83936ZM43.9371 65.1435C42.9791 66.0304 41.7647 66.591 40.4683 66.745C39.1719 66.8989 37.86 66.6383 36.7208 66.0006C35.587 65.5162 34.631 64.6925 33.9842 63.6429C33.3373 62.5932 33.0314 61.369 33.1084 60.1384C33.2457 58.6271 33.8732 57.202 34.8953 56.0803C41.5388 49.7455 48.7368 44.019 56.4028 38.9695C56.8212 38.6737 57.2972 38.4693 57.7998 38.3696C58.1369 38.3074 58.4825 38.3074 58.8196 38.3696C59.2234 38.4482 59.6086 38.6023 59.9552 38.8238C60.656 39.2588 61.2224 39.8796 61.5916 40.6171C61.9607 41.3547 62.1182 42.1802 62.0464 43.0019C61.9576 45.1413 61.2092 47.2009 59.9038 48.8983C55.237 54.9207 49.878 60.3733 43.9371 65.1435ZM66.2202 73.4097C65.4752 74.1758 64.4966 74.6724 63.4385 74.8213C62.3803 74.9703 61.3027 74.7631 60.3752 74.2324C59.3988 73.7249 58.5678 72.977 57.9605 72.0593C57.3533 71.1416 56.9897 70.0844 56.9042 68.9874C56.8047 68.0401 56.9263 67.0828 57.2594 66.1905C57.5925 65.2982 58.1281 64.4954 58.8239 63.8451C65.3288 57.8454 72.3078 52.3811 79.6929 47.5056C79.9157 47.3642 80.1214 47.2228 80.3657 47.0771C81.0107 46.6114 81.7923 46.3734 82.5875 46.4005C83.3826 46.4277 84.1462 46.7185 84.758 47.2271C85.35 47.7285 85.7688 48.4038 85.955 49.157C86.1412 49.9101 86.0852 50.7028 85.795 51.4223C84.8607 54.5342 83.1364 57.351 80.7899 59.5985C76.0633 64.3208 71.1482 68.8674 66.2288 73.3925L66.2202 73.4097ZM91.5501 78.7276C88.8175 83.319 85.3967 87.4638 81.407 91.0176C79.8872 92.4831 78.3088 93.8844 76.6718 95.2214C75.8049 95.9408 74.7625 96.417 73.6512 96.6013C72.5399 96.7856 71.3996 96.6714 70.3469 96.2704C69.2942 95.8694 68.3669 95.1959 67.6599 94.3189C66.9529 93.4419 66.4915 92.3928 66.323 91.279C66.2543 90.6597 66.3091 90.0329 66.4842 89.435C66.6592 88.837 66.9511 88.2796 67.3429 87.7951C73.1743 81.4627 79.8387 75.9515 87.1534 71.4128C87.2424 71.3783 87.3366 71.3594 87.432 71.3571L87.8605 71.7856C86.6606 73.0712 85.4265 74.2967 84.2738 75.6123C83.9272 76.1208 83.6396 76.6671 83.4167 77.2407C84.0509 77.4292 84.7923 77.9263 85.3065 77.7506C87.3763 77.0564 89.4117 76.2508 91.5929 75.3937L93.3541 74.7081C92.6942 76.1651 92.2228 77.4935 91.5586 78.7105L91.5501 78.7276ZM97.4336 67.8646C95.8352 69.8996 93.8317 71.5806 91.5501 72.8012C90.8444 73.1954 90.1202 73.564 89.3775 73.9068C90.1402 70.9885 90.903 68.2846 91.5501 65.5506L91.5758 65.4392C92.2106 62.7546 93.418 60.2389 95.1153 58.0644C96.1566 56.6974 97.3265 57.2416 98.5221 57.5373C99.6277 57.8073 99.9062 58.6172 99.9533 59.6799C100.129 62.6162 99.2372 65.5171 97.4422 67.8475L97.4336 67.8646ZM107.461 31.4404C104.984 38.9395 102.477 46.4386 100.06 53.9463C99.6062 55.3561 98.9892 55.6132 97.6565 54.7648L104.011 26.5124L104.988 22.1758L110.131 23.3799L109.098 26.5124L107.461 31.4404Z" fill="black"/>
    </g>
    <defs>
        <clipPath id="clip0_1_3263">
            <rect width="120" height="120" fill="white"/>
        </clipPath>
    </defs>

    <!--contacts-->
    <g id="instagramGray">
        <path fill-rule="evenodd" clip-rule="evenodd" d="M11.9962 0.0078125C8.73824 0.0078125 8.32971 0.021622 7.05019 0.080003C5.77333 0.138241 4.90129 0.341051 4.13824 0.637622C3.34938 0.944146 2.68038 1.35434 2.01343 2.02124C1.34652 2.68819 0.936333 3.35719 0.629809 4.14605C0.333238 4.9091 0.130429 5.78115 0.0721905 7.058C0.0138095 8.33753 0 8.74605 0 12.0041C0 15.262 0.0138095 15.6705 0.0721905 16.9501C0.130429 18.2269 0.333238 19.099 0.629809 19.862C0.936333 20.6509 1.34652 21.3199 2.01343 21.9868C2.68038 22.6537 3.34938 23.0639 4.13824 23.3705C4.90129 23.667 5.77333 23.8698 7.05019 23.9281C8.32971 23.9864 8.73824 24.0002 11.9962 24.0002C15.2542 24.0002 15.6627 23.9864 16.9422 23.9281C18.2191 23.8698 19.0911 23.667 19.8542 23.3705C20.643 23.0639 21.312 22.6537 21.979 21.9868C22.6459 21.3199 23.0561 20.6509 23.3627 19.862C23.6592 19.099 23.862 18.2269 23.9202 16.9501C23.9786 15.6705 23.9924 15.262 23.9924 12.0041C23.9924 8.74605 23.9786 8.33753 23.9202 7.058C23.862 5.78115 23.6592 4.9091 23.3627 4.14605C23.0561 3.35719 22.6459 2.68819 21.979 2.02124C21.312 1.35434 20.643 0.944146 19.8542 0.637622C19.0911 0.341051 18.2191 0.138241 16.9422 0.080003C15.6627 0.021622 15.2542 0.0078125 11.9962 0.0078125ZM11.9962 2.16929C15.1993 2.16929 15.5788 2.18153 16.8437 2.23924C18.0133 2.29257 18.6485 2.488 19.0712 2.65229C19.6312 2.86991 20.0308 3.12986 20.4506 3.54967C20.8704 3.96943 21.1303 4.36905 21.348 4.929C21.5122 5.35172 21.7077 5.98691 21.761 7.15653C21.8187 8.42148 21.831 8.80091 21.831 12.0041C21.831 15.2071 21.8187 15.5866 21.761 16.8515C21.7077 18.0211 21.5122 18.6563 21.348 19.0791C21.1303 19.639 20.8704 20.0386 20.4506 20.4584C20.0308 20.8782 19.6312 21.1381 19.0712 21.3558C18.6485 21.5201 18.0133 21.7155 16.8437 21.7688C15.579 21.8265 15.1996 21.8388 11.9962 21.8388C8.79286 21.8388 8.41352 21.8265 7.14871 21.7688C5.97909 21.7155 5.3439 21.5201 4.92119 21.3558C4.36124 21.1381 3.96162 20.8782 3.54186 20.4584C3.1221 20.0386 2.8621 19.639 2.64448 19.0791C2.48019 18.6563 2.28476 18.0211 2.23143 16.8515C2.17371 15.5866 2.16148 15.2071 2.16148 12.0041C2.16148 8.80091 2.17371 8.42148 2.23143 7.15653C2.28476 5.98691 2.48019 5.35172 2.64448 4.929C2.8621 4.36905 3.12205 3.96943 3.54186 3.54967C3.96162 3.12986 4.36124 2.86991 4.92119 2.65229C5.3439 2.488 5.97909 2.29257 7.14871 2.23924C8.41367 2.18153 8.7931 2.16929 11.9962 2.16929ZM11.9962 16.0028C9.78776 16.0028 7.99748 14.2125 7.99748 12.0041C7.99748 9.79558 9.78776 8.00529 11.9962 8.00529C14.2047 8.00529 15.995 9.79558 15.995 12.0041C15.995 14.2125 14.2047 16.0028 11.9962 16.0028ZM11.9962 5.84381C8.594 5.84381 5.836 8.60181 5.836 12.0041C5.836 15.4062 8.594 18.1642 11.9962 18.1642C15.3984 18.1642 18.1564 15.4062 18.1564 12.0041C18.1564 8.60181 15.3984 5.84381 11.9962 5.84381ZM18.3998 7.03996C19.1949 7.03996 19.8394 6.39548 19.8394 5.60043C19.8394 4.80538 19.1949 4.16086 18.3998 4.16086C17.6048 4.16086 16.9603 4.80538 16.9603 5.60043C16.9603 6.39548 17.6048 7.03996 18.3998 7.03996Z" fill="#758CA3"/>
    </g>
    <g id="telegramGray">
        <path fill-rule="evenodd" clip-rule="evenodd" d="M23.1117 4.49449C23.4296 2.94472 21.9074 1.65683 20.4317 2.227L2.3425 9.21601C0.694517 9.85273 0.621087 12.1572 2.22518 12.8975L6.1645 14.7157L8.03849 21.2746C8.13583 21.6153 8.40618 21.8791 8.74917 21.968C9.09216 22.0568 9.45658 21.9576 9.70712 21.707L12.5938 18.8203L16.6375 21.8531C17.8113 22.7334 19.5019 22.0922 19.7967 20.6549L23.1117 4.49449ZM3.0633 11.0816L21.1525 4.0926L17.8375 20.2531L13.1 16.6999C12.7019 16.4013 12.1448 16.4409 11.7929 16.7928L10.5565 18.0292L10.928 15.9861L18.2071 8.70703C18.5614 8.35278 18.5988 7.79106 18.2947 7.39293C17.9906 6.99479 17.4389 6.88312 17.0039 7.13168L6.95124 12.876L3.0633 11.0816ZM8.17695 14.4791L8.78333 16.6015L9.01614 15.321C9.05253 15.1209 9.14908 14.9366 9.29291 14.7928L11.5128 12.573L8.17695 14.4791Z" fill="#758CA3"/>
    </g>
    <g id="linkedinGray">
        <path fill-rule="evenodd" clip-rule="evenodd" d="M5.37214 24H0.396429V7.97674H5.37214V24ZM2.88161 5.79102C1.29054 5.79102 0 4.47317 0 2.8821C2.37147e-08 1.29063 1.29014 0.000488281 2.88161 0.000488281C4.47307 0.000488281 5.76321 1.29063 5.76321 2.8821C5.76321 4.47317 4.47214 5.79102 2.88161 5.79102ZM23.9946 24H19.0296V16.2C19.0296 14.341 18.9921 11.9571 16.4427 11.9571C13.8557 11.9571 13.4593 13.9767 13.4593 16.066V24H8.48893V7.97674H13.2611V10.1625H13.3307C13.995 8.90352 15.6177 7.57495 18.0386 7.57495C23.0743 7.57495 24 10.891 24 15.1982V24H23.9946Z" fill="#758CA3"/>
    </g>
</svg>
